<?xml version="1.0" standalone="no"?>
<!DOCTYPE svg PUBLIC "-//W3C//DTD SVG 20010904//EN"
 "http://www.w3.org/TR/2001/REC-SVG-20010904/DTD/svg10.dtd">
<svg version="1.0" xmlns="http://www.w3.org/2000/svg"
 width="128.000000pt" height="128.000000pt" viewBox="0 0 128.000000 128.000000"
 preserveAspectRatio="xMidYMid meet">
<metadata>
Created by potrace 1.14, written by Peter Selinger 2001-2017
</metadata>
<g transform="translate(0.000000,128.000000) scale(0.100000,-0.100000)"
fill="#000000" stroke="none">
<path d="M530 1262 c-84 -28 -143 -75 -193 -153 -40 -63 -54 -116 -54 -195 0
-77 20 -135 80 -223 55 -82 92 -160 102 -214 6 -33 5 -37 -18 -42 -42 -11 -79
-58 -84 -109 l-6 -46 -48 0 c-104 0 -153 -49 -150 -152 1 -45 0 -47 -30 -50
-39 -4 -59 -30 -43 -55 10 -16 30 -18 149 -21 143 -3 165 3 165 39 0 27 -31
39 -98 39 l-58 0 -3 49 c-2 40 2 52 17 60 25 13 738 14 762 1 13 -7 18 -23 19
-60 l1 -50 -266 0 c-273 1 -294 -2 -294 -39 0 -40 13 -41 361 -41 290 0 338 2
349 15 20 24 -2 63 -37 67 -26 3 -28 6 -34 63 -3 33 -12 70 -20 83 -20 32 -69
52 -127 52 l-49 0 -6 46 c-5 51 -42 98 -84 109 -23 5 -24 9 -18 42 10 55 50
139 99 207 54 76 74 123 82 192 7 58 -4 84 -36 84 -26 0 -39 -21 -41 -69 -2
-23 -7 -45 -11 -47 -4 -3 -8 -14 -8 -24 0 -10 -16 -39 -35 -64 -67 -88 -132
-226 -138 -294 -1 -22 -4 -23 -86 -20 l-84 3 -14 55 c-18 72 -55 152 -97 211
-67 92 -80 127 -80 209 0 57 5 85 22 116 33 64 70 103 126 132 42 22 64 27
126 27 65 0 82 -4 128 -29 29 -17 67 -46 83 -65 64 -78 65 -78 94 -58 24 18
15 52 -27 105 -91 111 -253 159 -388 114z m300 -921 c5 -11 10 -29 10 -41 0
-20 -4 -20 -200 -20 -193 1 -200 2 -200 21 0 11 4 29 10 39 9 16 26 18 189 19
169 1 181 0 191 -18z"/>
</g>
</svg>
